<?xml version="1.0" encoding="iso-8859-1"?>
<!-- Uploaded to: SVG Repo, www.svgrepo.com, Generator: SVG Repo Mixer Tools -->
<svg fill="#000000" height="800px" width="800px" version="1.1" id="Layer_1" xmlns="http://www.w3.org/2000/svg" xmlns:xlink="http://www.w3.org/1999/xlink" 
	 viewBox="0 0 392.598 392.598" xml:space="preserve">
<g>
	<g>
		<path d="M178.165,266.408c-13.899-5.301-28.509-9.18-43.507-11.507c-4.719-0.711-9.438,1.681-11.507,6.012l-20.816,43.055
			l-20.752-43.055c-2.069-4.331-6.723-6.788-11.507-6.012c-14.933,2.327-29.608,6.206-43.442,11.507
			c-15.838,6.077-26.57,21.721-26.57,39.046v76.218c0,6.012,4.849,10.925,10.925,10.925h183.014c6.012,0,10.925-4.849,10.925-10.925
			v-76.218C204.8,288.129,194.198,272.485,178.165,266.408z M183.079,370.747h-0.065H21.85v-65.293
			c0-8.275,5.107-15.774,12.671-18.618c9.956-3.879,20.493-6.788,31.16-8.986l26.958,55.919c1.875,3.814,5.624,6.206,9.826,6.206
			c4.202,0,8.016-2.392,9.826-6.206l26.958-55.919c10.667,2.069,21.075,5.107,31.16,8.986c7.564,2.844,12.671,10.343,12.671,18.618
			V370.747z"/>
	</g>
</g>
<g>
	<g>
		<path d="M102.464,122.117c-30.966,0-56.049,25.147-56.049,56.048s25.212,56.049,56.049,56.049
			c30.901,0,56.048-25.083,56.048-56.049S133.43,122.117,102.464,122.117z M102.464,212.493c-18.877,0-34.133-15.386-34.133-34.263
			s15.257-34.263,34.133-34.263s34.263,15.386,34.263,34.263S121.341,212.493,102.464,212.493z"/>
	</g>
</g>
<g>
	<g>
		<path d="M381.737,0H102.464c-6.012,0-10.925,4.849-10.925,10.925v75.442c0,6.012,4.849,10.925,10.925,10.925
			c6.012,0,10.925-4.848,10.925-10.925V21.851h257.422v74.02h-40.663c-6.012,0-10.925,4.848-10.925,10.925
			c0,6.012,4.848,10.925,10.925,10.925h40.598v19.394h-14.869c-6.012,0-10.925,4.848-10.925,10.925
			c0,6.012,4.849,10.925,10.925,10.925h14.869v26.505H182.626c-6.012,0-10.925,4.848-10.925,10.925
			c0,6.012,4.849,10.925,10.925,10.925h198.982c6.012,0,10.925-4.848,10.925-10.925V10.861C392.598,4.849,387.749,0,381.737,0z"/>
	</g>
</g>
<g>
	<g>
		<path d="M320.194,61.543c-4.267-4.267-11.119-4.267-15.451,0l-43.119,43.249l-21.527-21.527c-4.267-4.267-11.119-4.267-15.451,0
			l-46.675,46.675c-4.267,4.267-4.267,11.119,0,15.451c3.749,3.879,11.507,3.879,15.321,0l39.046-39.046l21.527,21.527
			c4.267,4.267,11.119,4.267,15.45,0l50.877-50.877C324.46,72.727,324.46,65.875,320.194,61.543z"/>
	</g>
</g>
</svg>