<?xml version="1.0" encoding="iso-8859-1"?>
<!-- Uploaded to: SVG Repo, www.svgrepo.com, Generator: SVG Repo Mixer Tools -->
<!DOCTYPE svg PUBLIC "-//W3C//DTD SVG 1.1//EN" "http://www.w3.org/Graphics/SVG/1.1/DTD/svg11.dtd">
<svg fill="#000000" version="1.1" id="Capa_1" xmlns="http://www.w3.org/2000/svg" xmlns:xlink="http://www.w3.org/1999/xlink" 
	 width="800px" height="800px" viewBox="0 0 885.199 885.199"
	 xml:space="preserve">
<g>
	<g>
		<path d="M431.965,240.9c-4.301-5.4-8.301-11-12.301-16.7v-7.6v-7.1v-122c0-48.4-39.199-87.5-87.5-87.5l0,0
			c-48.399,0-87.5,39.2-87.5,87.5v126.2v5.4v5.4c-44.9,30-98,65.5-105.8,71.2c-15.2,11.2-18.8,32.5-8,48.101l66.1,95.699
			c0.9,1.301,1.9,2.5,2.9,3.6l7.7-39.9v-50.5v-20h0.7h19.3v10v10v7.9v44.6l-9.4,48.601l-10.1,52.5l-2.1,11l-2.1,11l-41.9,248.1
			c-1.6,9.199-2.3,18.5-2.3,27.799v9.301c0,6.6,5.4,12,12,12h56v10.9c0,25.799,20.4,48.4,46.2,48.799c0.3,0,0.5,0,0.8,0
			c26,0,47.101-22,47.101-48V825.5h22.7v10.9c0,25.799,20.399,48.4,46.199,48.799c0.301,0,0.5,0,0.801,0c26,0,47.1-22,47.1-48V825.5
			h55.8c6.601,0,12-5.4,12-12v-8.699c0-9.701-0.8-19.4-2.5-29l-65.3-370.601V361.8l39.201,49.5c6.6,8.399,16.7,13.3,27.399,13.3
			h63.101v-70h-46.2L431.965,240.9z M276.465,67h111.5v55.2c0,30.8-25,55.7-55.7,55.7l0,0c-30.8,0-55.7-25-55.7-55.7V67H276.465z
			 M482.766,790.1H181.565c64.1-71.699,99.7-174.5,119.2-270.6c23.7-116.2,24-222.6,23.6-251.8c-0.1-4.4,3.5-7.9,7.8-7.9l0,0
			c4.4,0,7.9,3.6,7.801,7.9c-0.4,29.2,0,135.601,23.6,251.8C383.165,615.6,418.665,718.4,482.766,790.1z"/>
		<path d="M754.565,273.3h-160.5c-3.3,0-6,2.7-6,6v66.5v87.5v66.5c0,3.299,2.7,6,6,6h160.5c3.3,0,6-2.701,6-6V279.3
			C760.565,276,757.865,273.3,754.565,273.3z M712.466,388.1h-22.5v58.4c0,8.6-7,15.6-15.601,15.6c-8.6,0-15.6-7-15.6-15.6v-37.8
			V388h-22.5c-8.601,0-15.601-7-15.601-15.6s7-15.6,15.601-15.6h12.3h10.1v-24.4c0-8.6,7-15.6,15.601-15.6c8.6,0,15.6,7,15.6,15.6
			v24.5h22.5c8.601,0,15.601,7,15.601,15.6C728.065,381.1,721.065,388.1,712.466,388.1z"/>
	</g>
</g>
</svg>